<svg width="345" height="39" viewBox="0 0 345 39" fill="none" xmlns="http://www.w3.org/2000/svg">
<g filter="url(#filter0_d_2_17)">
<path d="M0.12 18.8C0.12 16.5067 0.546667 14.4933 1.4 12.76C2.28 11.0267 3.46667 9.69333 4.96 8.76C6.45333 7.82667 8.12 7.36 9.96 7.36C11.5333 7.36 12.9067 7.68 14.08 8.32C15.28 8.96 16.2 9.8 16.84 10.84V7.68H23.68V30H16.84V26.84C16.1733 27.88 15.24 28.72 14.04 29.36C12.8667 30 11.4933 30.32 9.92 30.32C8.10667 30.32 6.45333 29.8533 4.96 28.92C3.46667 27.96 2.28 26.6133 1.4 24.88C0.546667 23.12 0.12 21.0933 0.12 18.8ZM16.84 18.84C16.84 17.1333 16.36 15.7867 15.4 14.8C14.4667 13.8133 13.32 13.32 11.96 13.32C10.6 13.32 9.44 13.8133 8.48 14.8C7.54667 15.76 7.08 17.0933 7.08 18.8C7.08 20.5067 7.54667 21.8667 8.48 22.88C9.44 23.8667 10.6 24.36 11.96 24.36C13.32 24.36 14.4667 23.8667 15.4 22.88C16.36 21.8933 16.84 20.5467 16.84 18.84ZM46.2284 7.44C48.8418 7.44 50.9218 8.29333 52.4684 10C54.0418 11.68 54.8284 14 54.8284 16.96V30H48.0284V17.88C48.0284 16.3867 47.6418 15.2267 46.8684 14.4C46.0951 13.5733 45.0551 13.16 43.7484 13.16C42.4418 13.16 41.4018 13.5733 40.6284 14.4C39.8551 15.2267 39.4684 16.3867 39.4684 17.88V30H32.6284V7.68H39.4684V10.64C40.1618 9.65333 41.0951 8.88 42.2684 8.32C43.4418 7.73333 44.7618 7.44 46.2284 7.44ZM85.6216 7.68V30H78.7816V26.96C78.0882 27.9467 77.1416 28.7467 75.9416 29.36C74.7682 29.9467 73.4616 30.24 72.0216 30.24C70.3149 30.24 68.8082 29.8667 67.5016 29.12C66.1949 28.3467 65.1816 27.24 64.4616 25.8C63.7416 24.36 63.3816 22.6667 63.3816 20.72V7.68H70.1816V19.8C70.1816 21.2933 70.5682 22.4533 71.3416 23.28C72.1149 24.1067 73.1549 24.52 74.4616 24.52C75.7949 24.52 76.8482 24.1067 77.6216 23.28C78.3949 22.4533 78.7816 21.2933 78.7816 19.8V7.68H85.6216ZM103.615 30.32C101.668 30.32 99.9347 29.9867 98.4147 29.32C96.8947 28.6533 95.6947 27.7467 94.8147 26.6C93.9347 25.4267 93.4414 24.12 93.3347 22.68H100.095C100.175 23.4533 100.535 24.08 101.175 24.56C101.815 25.04 102.601 25.28 103.535 25.28C104.388 25.28 105.041 25.12 105.495 24.8C105.975 24.4533 106.215 24.0133 106.215 23.48C106.215 22.84 105.881 22.3733 105.215 22.08C104.548 21.76 103.468 21.4133 101.975 21.04C100.375 20.6667 99.0414 20.28 97.9747 19.88C96.908 19.4533 95.988 18.8 95.2147 17.92C94.4414 17.0133 94.0547 15.8 94.0547 14.28C94.0547 13 94.4014 11.84 95.0947 10.8C95.8147 9.73333 96.8547 8.89333 98.2147 8.28C99.6014 7.66666 101.241 7.36 103.135 7.36C105.935 7.36 108.135 8.05333 109.735 9.44C111.361 10.8267 112.295 12.6667 112.535 14.96H106.215C106.108 14.1867 105.761 13.5733 105.175 13.12C104.615 12.6667 103.868 12.44 102.935 12.44C102.135 12.44 101.521 12.6 101.095 12.92C100.668 13.2133 100.455 13.6267 100.455 14.16C100.455 14.8 100.788 15.28 101.455 15.6C102.148 15.92 103.215 16.24 104.655 16.56C106.308 16.9867 107.655 17.4133 108.695 17.84C109.735 18.24 110.641 18.9067 111.415 19.84C112.215 20.7467 112.628 21.9733 112.655 23.52C112.655 24.8267 112.281 26 111.535 27.04C110.815 28.0533 109.761 28.8533 108.375 29.44C107.015 30.0267 105.428 30.32 103.615 30.32ZM134.559 7.44C137.119 7.44 139.173 8.29333 140.719 10C142.266 11.68 143.039 14 143.039 16.96V30H136.239V17.88C136.239 16.3867 135.853 15.2267 135.079 14.4C134.306 13.5733 133.266 13.16 131.959 13.16C130.653 13.16 129.613 13.5733 128.839 14.4C128.066 15.2267 127.679 16.3867 127.679 17.88V30H120.839V0.4H127.679V10.68C128.373 9.69333 129.319 8.90666 130.519 8.32C131.719 7.73333 133.066 7.44 134.559 7.44ZM172.832 18.48C172.832 19.12 172.793 19.7867 172.713 20.48H157.233C157.339 21.8667 157.779 22.9333 158.553 23.68C159.353 24.4 160.326 24.76 161.473 24.76C163.179 24.76 164.366 24.04 165.033 22.6H172.313C171.939 24.0667 171.259 25.3867 170.273 26.56C169.313 27.7333 168.099 28.6533 166.633 29.32C165.166 29.9867 163.526 30.32 161.713 30.32C159.526 30.32 157.579 29.8533 155.873 28.92C154.166 27.9867 152.833 26.6533 151.873 24.92C150.913 23.1867 150.433 21.16 150.433 18.84C150.433 16.52 150.899 14.4933 151.833 12.76C152.793 11.0267 154.126 9.69333 155.833 8.76C157.539 7.82667 159.499 7.36 161.713 7.36C163.873 7.36 165.793 7.81333 167.473 8.72C169.153 9.62667 170.459 10.92 171.393 12.6C172.353 14.28 172.832 16.24 172.832 18.48ZM165.833 16.68C165.833 15.5067 165.433 14.5733 164.633 13.88C163.833 13.1867 162.833 12.84 161.633 12.84C160.486 12.84 159.513 13.1733 158.713 13.84C157.939 14.5067 157.459 15.4533 157.273 16.68H165.833ZM194.161 7.44C196.721 7.44 198.774 8.29333 200.321 10C201.868 11.68 202.641 14 202.641 16.96V30H195.841V17.88C195.841 16.3867 195.454 15.2267 194.681 14.4C193.908 13.5733 192.868 13.16 191.561 13.16C190.254 13.16 189.214 13.5733 188.441 14.4C187.668 15.2267 187.281 16.3867 187.281 17.88V30H180.441V0.4H187.281V10.68C187.974 9.69333 188.921 8.90666 190.121 8.32C191.321 7.73333 192.668 7.44 194.161 7.44ZM210.034 18.8C210.034 16.5067 210.461 14.4933 211.314 12.76C212.194 11.0267 213.381 9.69333 214.874 8.76C216.367 7.82667 218.034 7.36 219.874 7.36C221.341 7.36 222.674 7.66666 223.874 8.28C225.101 8.89333 226.061 9.72 226.754 10.76V0.4H233.594V30H226.754V26.8C226.114 27.8667 225.194 28.72 223.994 29.36C222.821 30 221.447 30.32 219.874 30.32C218.034 30.32 216.367 29.8533 214.874 28.92C213.381 27.96 212.194 26.6133 211.314 24.88C210.461 23.12 210.034 21.0933 210.034 18.8ZM226.754 18.84C226.754 17.1333 226.274 15.7867 225.314 14.8C224.381 13.8133 223.234 13.32 221.874 13.32C220.514 13.32 219.354 13.8133 218.394 14.8C217.461 15.76 216.994 17.0933 216.994 18.8C216.994 20.5067 217.461 21.8667 218.394 22.88C219.354 23.8667 220.514 24.36 221.874 24.36C223.234 24.36 224.381 23.8667 225.314 22.88C226.274 21.8933 226.754 20.5467 226.754 18.84ZM241.183 18.8C241.183 16.5067 241.609 14.4933 242.463 12.76C243.343 11.0267 244.529 9.69333 246.023 8.76C247.516 7.82667 249.183 7.36 251.023 7.36C252.596 7.36 253.969 7.68 255.143 8.32C256.343 8.96 257.263 9.8 257.903 10.84V7.68H264.743V30H257.903V26.84C257.236 27.88 256.303 28.72 255.103 29.36C253.929 30 252.556 30.32 250.983 30.32C249.169 30.32 247.516 29.8533 246.023 28.92C244.529 27.96 243.343 26.6133 242.463 24.88C241.609 23.12 241.183 21.0933 241.183 18.8ZM257.903 18.84C257.903 17.1333 257.423 15.7867 256.463 14.8C255.529 13.8133 254.383 13.32 253.023 13.32C251.663 13.32 250.503 13.8133 249.543 14.8C248.609 15.76 248.143 17.0933 248.143 18.8C248.143 20.5067 248.609 21.8667 249.543 22.88C250.503 23.8667 251.663 24.36 253.023 24.36C254.383 24.36 255.529 23.8667 256.463 22.88C257.423 21.8933 257.903 20.5467 257.903 18.84ZM287.291 7.44C289.904 7.44 291.984 8.29333 293.531 10C295.104 11.68 295.891 14 295.891 16.96V30H289.091V17.88C289.091 16.3867 288.704 15.2267 287.931 14.4C287.158 13.5733 286.118 13.16 284.811 13.16C283.504 13.16 282.464 13.5733 281.691 14.4C280.918 15.2267 280.531 16.3867 280.531 17.88V30H273.691V7.68H280.531V10.64C281.224 9.65333 282.158 8.88 283.331 8.32C284.504 7.73333 285.824 7.44 287.291 7.44ZM303.284 18.8C303.284 16.5067 303.711 14.4933 304.564 12.76C305.444 11.0267 306.631 9.69333 308.124 8.76C309.617 7.82667 311.284 7.36 313.124 7.36C314.697 7.36 316.071 7.68 317.244 8.32C318.444 8.96 319.364 9.8 320.004 10.84V7.68H326.844V30H320.004V26.84C319.337 27.88 318.404 28.72 317.204 29.36C316.031 30 314.657 30.32 313.084 30.32C311.271 30.32 309.617 29.8533 308.124 28.92C306.631 27.96 305.444 26.6133 304.564 24.88C303.711 23.12 303.284 21.0933 303.284 18.8ZM320.004 18.84C320.004 17.1333 319.524 15.7867 318.564 14.8C317.631 13.8133 316.484 13.32 315.124 13.32C313.764 13.32 312.604 13.8133 311.644 14.8C310.711 15.76 310.244 17.0933 310.244 18.8C310.244 20.5067 310.711 21.8667 311.644 22.88C312.604 23.8667 313.764 24.36 315.124 24.36C316.484 24.36 317.631 23.8667 318.564 22.88C319.524 21.8933 320.004 20.5467 320.004 18.84Z" fill="white"/>
</g>
<defs>
<filter id="filter0_d_2_17" x="0.120117" y="0.399902" width="344.724" height="37.9202" filterUnits="userSpaceOnUse" color-interpolation-filters="sRGB">
<feFlood flood-opacity="0" result="BackgroundImageFix"/>
<feColorMatrix in="SourceAlpha" type="matrix" values="0 0 0 0 0 0 0 0 0 0 0 0 0 0 0 0 0 0 127 0" result="hardAlpha"/>
<feOffset dx="15" dy="5"/>
<feGaussianBlur stdDeviation="1.5"/>
<feComposite in2="hardAlpha" operator="out"/>
<feColorMatrix type="matrix" values="0 0 0 0 0 0 0 0 0 0 0 0 0 0 0 0 0 0 0.5 0"/>
<feBlend mode="normal" in2="BackgroundImageFix" result="effect1_dropShadow_2_17"/>
<feBlend mode="normal" in="SourceGraphic" in2="effect1_dropShadow_2_17" result="shape"/>
</filter>
</defs>
</svg>
